<?xml version="1.0" encoding="UTF-8"?>
<svg width="34px" height="34px" viewBox="0 0 34 34" version="1.1" xmlns="http://www.w3.org/2000/svg" xmlns:xlink="http://www.w3.org/1999/xlink">
    <!-- Generator: Sketch 45.1 (43504) - http://www.bohemiancoding.com/sketch -->
    <title>Group 2</title>
    <desc>Created with Sketch.</desc>
    <defs></defs>
    <g id="Page-1" stroke="none" stroke-width="1" fill="none" fill-rule="evenodd">
        <g id="Group-2">
            <g id="Group" fill="#FFC742">
                <path d="M13,0 L21,0 L21,2 L13,2 L13,0 Z M13,32 L21,32 L21,34 L13,34 L13,32 Z M6,2 L13,2 L13,4 L6,4 L6,2 Z M6,30 L13,30 L13,32 L6,32 L6,30 Z M21,2 L28,2 L28,4 L21,4 L21,2 Z M21,30 L28,30 L28,32 L21,32 L21,30 Z M4,4 L6,4 L6,6 L4,6 L4,4 Z M4,28 L6,28 L6,30 L4,30 L4,28 Z M28,4 L30,4 L30,6 L28,6 L28,4 Z M28,28 L30,28 L30,30 L28,30 L28,28 Z M30,6 L32,6 L32,10 L30,10 L30,6 Z M30,24 L32,24 L32,28 L30,28 L30,24 Z M2,6 L4,6 L4,10 L2,10 L2,6 Z M2,24 L4,24 L4,28 L2,28 L2,24 Z M0,10 L2,10 L2,24 L0,24 L0,10 Z M32,10 L34,10 L34,24 L32,24 L32,10 Z" id="Combined-Shape"></path>
            </g>
            <rect id="Rectangle-5" fill="#FFC742" x="6" y="4" width="21.9356134" height="26"></rect>
            <rect id="Rectangle-8" fill="#FFC742" x="27" y="6" width="5" height="22"></rect>
            <rect id="Rectangle-8-Copy" fill="#FFC742" x="2" y="6" width="5" height="22"></rect>
            <rect id="Rectangle-7" fill="#FFC742" x="13" y="2" width="8" height="3"></rect>
            <rect id="Rectangle-7-Copy" fill="#FFC742" x="13" y="30" width="8" height="3"></rect>
            <rect id="Rectangle-9" fill="#FFFFFF" x="5" y="8" width="3" height="19"></rect>
            <rect id="Rectangle-10" fill="#FFFFFF" x="18" y="8" width="3" height="19"></rect>
            <rect id="Rectangle-11" fill="#FFFFFF" x="18" y="8" width="11" height="3"></rect>
            <rect id="Rectangle-11-Copy" fill="#FFFFFF" x="19" y="16" width="9" height="3"></rect>
            <rect id="Rectangle-9-Copy" fill="#FFFFFF" transform="translate(11.275425, 9.500000) rotate(-90.000000) translate(-11.275425, -9.500000) " x="9.77542461" y="4.22457539" width="3" height="10.5508492"></rect>
            <rect id="Rectangle-9-Copy-2" fill="#FFFFFF" transform="translate(11.275425, 25.500000) rotate(-90.000000) translate(-11.275425, -25.500000) " x="9.77542461" y="20.2245754" width="3" height="10.5508492"></rect>
        </g>
    </g>
</svg>